<svg width="22" height="15" viewBox="0 0 22 15" fill="none" xmlns="http://www.w3.org/2000/svg">
<path d="M0 3.57031C0 3.57031 2.38759 6.13956 4.31746 7.2846C4.96974 9.70823 5.47194 10.8875 6.47619 12.856C6.47619 12.856 1.69615 9.85603 0.848073 8.57031C0 7.2846 0 3.57031 0 3.57031Z" fill="#E7E5E4"/>
<path d="M21.8571 3.57031C21.8571 3.57031 19.4696 6.13956 17.5397 7.2846C16.8874 9.70823 16.3852 10.8875 15.381 12.856C15.381 12.856 20.161 9.85603 21.0091 8.57031C21.8571 7.2846 21.8571 3.57031 21.8571 3.57031Z" fill="#EBEAE9"/>
<path d="M6.4762 0L11.3333 2.67327V15C11.3333 15 8.24143 10.7668 6.4762 7.20297C8.11271 5.816 8.27759 4.44728 6.4762 0Z" fill="#E7E5E4"/>
<path d="M16.1038 0L11.3333 2.67857V15C11.3333 15 14.4253 10.7668 16.1905 7.20297C14.554 5.816 14.3024 4.44728 16.1038 0Z" fill="#EBEAE9"/>
</svg>
